<svg xmlns="http://www.w3.org/2000/svg" viewBox="0 0 400 210" width="100%" height="100%">
  <!-- Left Side: Massive boilerplate code box (crossed out/faded) -->
  <rect x="50" y="40" width="120" height="130" fill="none" stroke="#747878" stroke-width="1.5" stroke-dasharray="3 3" />
  <line x1="60" y1="55" x2="160" y2="55" stroke="#747878" stroke-width="1" />
  <line x1="60" y1="70" x2="130" y2="70" stroke="#747878" stroke-width="1" />
  <line x1="60" y1="85" x2="150" y2="85" stroke="#747878" stroke-width="1" />
  <line x1="60" y1="100" x2="110" y2="100" stroke="#747878" stroke-width="1" />
  <!-- Big Red Redundant Cross -->
  <path d="M 60 50 L 160 160 M 160 50 L 60 160" fill="none" stroke="#B5502D" stroke-width="2" opacity="0.65" />

  <!-- Arrow -->
  <path d="M 185 105 L 220 105" fill="none" stroke="#1b1c1c" stroke-width="2" />
  <path d="M 213 98 L 221 105 L 213 112" fill="none" stroke="#1b1c1c" stroke-width="2" />

  <!-- Right Side: Clean snake block (Python library) -->
  <rect x="235" y="60" width="115" height="90" fill="none" stroke="#1b1c1c" stroke-width="2" />
  <!-- Python logo-like simplified shape -->
  <path d="M 270 95 C 270 85, 280 85, 290 85 C 300 85, 300 95, 300 105 L 300 115" fill="none" stroke="#B5502D" stroke-width="2" stroke-linecap="round" />
  <path d="M 280 125 C 280 115, 290 115, 300 115 C 310 115, 310 125, 310 135" fill="none" stroke="#1b1c1c" stroke-width="2" stroke-linecap="round" />
</svg>
